:FULLY-SPECIFIED
:DEGREES
24
root -0.567874014377594 -0.567874014377594 -0.567874014377594 -0.5678755879732001 -0.5678755879732001 -0.5678755879732001
lhipjoint -9.671654586443837e-08 -1.5341245206083327e-07 1.0672170578144923e-06
lfemur -15.48711072599812 -0.24218420726007744 -13.858630557100646
ltibia 21.182914757898473 -1.1707610586914727e-06 3.9375236423193397e-07
lfoot -15.10843650067615 -2.3883799827275122e-06 10.138159921850292
ltoes -45.126943733058354 9.549757411055189e-07 -1.236298398013587e-07
rhipjoint 1.1005675908711953e-07 6.870210827458292e-07 -1.494104084495789e-06
rfemur -10.505350037856532 5.731826876469824 8.532857999901257
rtibia 10.525499949681716 6.598226075539502e-07 -1.558998290216874e-06
rfoot -16.607285655542306 1.4774852028408305e-06 -13.18220106510114
rtoes -6.0995903014795205 1.2360749958527612e-06 -7.305143792372819e-07
lowerback 23.686471079295163 0.9723864979346237 -2.905481150983619
upperback 2.1722454025439406 0.5155699993092425 0.34562131242226457
thorax -10.625874702176931 0.3802366577750363 1.8654753533790458
lowerneck -11.457395592112624 -2.029057957114028 -1.9248847656666397
upperneck 23.5797988923852 -3.0151462414105206 2.3060364286666197
head 9.370881229926802 -1.331763944747426 0.7745436119620046
lclavicle -1.4085775951116125e-07 5.4855408257763046e-08 -1.0938974842598547e-06
lhumerus 59.60240269768733 36.366792405504704 35.09072865343873
lradius 17.74554180336681 3.0568499332383004e-07 1.9754139131092945e-06
lwrist -1.098634017180365e-06 -49.00264920021747 2.649094171965944e-07
lhand -4.562975323145072 2.6246558075710764e-07 -26.656099019086014
lfingers 7.125022823272814 9.845282338726802e-08 3.18924141240953e-07
lthumb 21.213298854421275 -1.2803152392500461e-07 2.20318914769186
rclavicle 1.398304276268298e-07 4.3880174074018323e-07 -1.3740421654916584e-06
rhumerus 54.57060233613893 -44.25938676506168 -33.93472938169783
rradius 22.578476084588402 -1.3163392702386748e-06 -2.6407930769139486e-06
rwrist 4.2034434581271414e-07 41.82998751503111 9.39649538650857e-07
rhand -6.972260092956778 2.0321462048512455e-07 -36.68780446630613
rfingers 7.125022396385991 5.1024341088409163e-08 -3.1892353057445414e-07
rthumb 18.897492480477187 1.5447771905696147e-06 -65.78980959509936
25
root -0.567874014377594 -0.567874014377594 -0.567874014377594 -0.5678755879732001 -0.5678755879732001 -0.5678755879732001
lhipjoint -9.671654586443837e-08 -1.5341245206083327e-07 1.0672170578144923e-06
lfemur -17.010680043017842 0.8522857855904418 -14.359979248784276
ltibia 23.313103910958294 -3.1532456756353477e-07 -1.1693319973064348e-06
lfoot -15.85919552631832 -9.231993027273286e-07 9.342647789218908
ltoes -46.486991491158804 1.0314940854097922e-07 1.3225267467604313e-06
rhipjoint 1.1005675908711953e-07 6.870210827458292e-07 -1.494104084495789e-06
rfemur -12.128286654468894 5.611015344204285 8.740605033696365
rtibia 12.888703567597462 9.646292588969472e-07 -2.3596462919575467e-06
rfoot -18.071196685256552 1.3352364468230592e-06 -12.561702284667577
rtoes -7.163911359085928 2.911077733299966e-07 -8.324096823451413e-07
lowerback 24.20179006915241 0.939014407093353 -2.5475653646531993
upperback 1.7457962451335534 0.5981743071313768 0.37514149673676545
thorax -11.228527052082898 0.3881049823380381 1.6212959838293841
lowerneck -11.457395592112624 -2.029057957114028 -1.9248847656666397
upperneck 23.5797988923852 -3.0151462414105206 2.3060364286666197
head 9.370881229926802 -1.331763944747426 0.7745436119620046
lclavicle -1.4085775951116125e-07 5.4855408257763046e-08 -1.0938974842598547e-06
lhumerus 50.28925193417277 35.878789049685636 24.637837883502485
lradius 19.35260506034806 -2.696003027963164e-07 8.114524223269168e-07
lwrist -1.1281089553021735e-06 -49.6138623384744 2.720127153555503e-07
lhand -4.562975323145072 2.6246558075710764e-07 -26.656099019086014
lfingers 7.125022823272814 9.845282338726802e-08 3.18924141240953e-07
lthumb 21.213298854421275 -1.2803152392500461e-07 2.20318914769186
rclavicle 1.398304276268298e-07 4.3880174074018323e-07 -1.3740421654916584e-06
rhumerus 45.613574220854254 -44.19811996820666 -26.590585552114547
rradius 24.126750195836063 -5.299217316982435e-07 -2.8477744155861118e-06
rwrist 4.779325375416655e-07 44.89286290491826 1.0683841432715272e-06
rhand -6.972260092956778 2.0321462048512455e-07 -36.68780446630613
rfingers 7.125022396385991 5.1024341088409163e-08 -3.1892353057445414e-07
rthumb 18.897492480477187 1.5447771905696147e-06 -65.78980959509936
26
root -0.567874014377594 -0.567874014377594 -0.567874014377594 -0.5678755879732001 -0.5678755879732001 -0.5678755879732001
lhipjoint -9.671654586443837e-08 -1.5341245206083327e-07 1.0672170578144923e-06
lfemur -18.891210413988066 1.7489243650517134 -14.91378464706725
ltibia 25.563799799091942 -6.767851926700063e-07 -2.1033662539449495e-06
lfoot -16.575205964558048 1.7975129202229389e-06 8.448533338181926
ltoes -48.13614408135297 6.201344757945256e-07 1.200957906392661e-06
rhipjoint 1.1005675908711953e-07 6.870210827458292e-07 -1.494104084495789e-06
rfemur -13.83991840009575 5.383050523579116 8.945934180525288
rtibia 15.135905813970648 4.959717276951783e-07 -6.554528816437436e-07
rfoot -19.589879001925134 -7.373023953717736e-07 -12.13672876828303
rtoes -8.154795076510004 1.0733922192285223e-06 -8.083119680788771e-07
lowerback 24.876776683689748 0.8465745201446947 -2.1543101795571333
upperback 1.131270465129166 0.6264376832777424 0.42759734956246337
thorax -12.020557495784868 0.3700050877592101 1.3900805267678182
lowerneck -11.457395592112624 -2.029057957114028 -1.9248847656666397
upperneck 23.5797988923852 -3.0151462414105206 2.3060364286666197
head 9.370881229926802 -1.331763944747426 0.7745436119620046
lclavicle -1.4085775951116125e-07 5.4855408257763046e-08 -1.0938974842598547e-06
lhumerus 38.98503272570779 34.979543419034684 14.744882606629297
lradius 20.510745596393765 7.132784190852445e-07 7.201960491841154e-07
lwrist -1.1403671692666582e-06 -49.86243682803325 2.74970274987187e-07
lhand -4.562975323145072 2.6246558075710764e-07 -26.656099019086014
lfingers 7.125022823272814 9.845282338726802e-08 3.18924141240953e-07
lthumb 21.213298854421275 -1.2803152392500461e-07 2.20318914769186
rclavicle 1.398304276268298e-07 4.3880174074018323e-07 -1.3740421654916584e-06
rhumerus 34.950426322602915 -42.76387928024695 -18.01785632293334
rradius 25.877660651832368 -1.4472779738091618e-06 -3.470328962715544e-06
rwrist 5.77131188279518e-07 49.315461618920295 1.290135977884407e-06
rhand -6.972260092956778 2.0321462048512455e-07 -36.68780446630613
rfingers 7.125022396385991 5.1024341088409163e-08 -3.1892353057445414e-07
rthumb 18.897492480477187 1.5447771905696147e-06 -65.78980959509936
27
root -0.567874014377594 -0.567874014377594 -0.567874014377594 -0.5678755879732001 -0.5678755879732001 -0.5678755879732001
lhipjoint -9.671654586443837e-08 -1.5341245206083327e-07 1.0672170578144923e-06
lfemur -20.884816274215144 2.3583964454005257 -15.42979007093608
ltibia 27.780129590416674 -1.6213822495167233e-06 -4.966885483870678e-07
lfoot -17.256638570124586 -6.275654728634221e-07 7.459633790711739
ltoes -49.785347897965906 8.53840005344468e-08 1.0294906921825944e-06
rhipjoint 1.1005675908711953e-07 6.870210827458292e-07 -1.494104084495789e-06
rfemur -15.553261108109693 4.918691148232513 9.158204507098237
rtibia 17.455190461749567 7.040149136310761e-07 -2.343180484038298e-06
rfoot -21.097974525380195 6.07592709019079e-07 -11.71298383217544
rtoes -9.059672198131633 1.3258780845060706e-07 -9.610347741070194e-07
lowerback 25.539277712424305 0.6939609867733413 -1.7354966400302916
upperback 0.28871180273174807 0.5912622090521767 0.45480874317451486
thorax -12.962753063484154 0.3223029932349881 1.1372130498721946
lowerneck -11.457395592112624 -2.029057957114028 -1.9248847656666397
upperneck 23.5797988923852 -3.0151462414105206 2.3060364286666197
head 9.370881229926802 -1.331763944747426 0.7745436119620046
lclavicle -1.4085775951116125e-07 5.4855408257763046e-08 -1.0938974842598547e-06
lhumerus 26.067160835259788 33.86174198022707 5.484713620506525
lradius 21.20742318418777 7.452394823015845e-07 8.349089367693979e-07
lwrist -1.080542818596701e-06 -48.61776121029808 2.6054600150687583e-07
lhand -4.562975323145072 2.6246558075710764e-07 -26.656099019086014
lfingers 7.125022823272814 9.845282338726802e-08 3.18924141240953e-07
lthumb 21.213298854421275 -1.2803152392500461e-07 2.20318914769186
rclavicle 1.398304276268298e-07 4.3880174074018323e-07 -1.3740421654916584e-06
rhumerus 22.690233347335443 -40.75347798485081 -8.1760694082273
rradius 27.49496748502135 -8.492909470391017e-07 -2.813528238331109e-06
rwrist 7.208267658996683e-07 54.31731501605277 1.6113529682730083e-06
rhand -6.972260092956778 2.0321462048512455e-07 -36.68780446630613
rfingers 7.125022396385991 5.1024341088409163e-08 -3.1892353057445414e-07
rthumb 18.897492480477187 1.5447771905696147e-06 -65.78980959509936
